<?xml version="1.0" encoding="utf-8"?>
<!-- Generator: Adobe Illustrator 22.1.0, SVG Export Plug-In . SVG Version: 6.00 Build 0)  -->
<svg version="1.1" id="Layer_1" xmlns="http://www.w3.org/2000/svg" xmlns:xlink="http://www.w3.org/1999/xlink" x="0px" y="0px"
	 viewBox="0 0 202 265.4" style="enable-background:new 0 0 202 265.4;" xml:space="preserve">
<style type="text/css">
	.st0{fill:#98C13F;}
	.st1{fill:#89B940;}
	.st2{fill:#79B040;}
	.st3{fill:#76AF41;}
	.st4{fill:#77AF3F;}
	.st5{fill:#75AD41;}
	.st6{fill:#62A53E;}
	.st7{fill:#64A73F;}
	.st8{fill:#62A63D;}
	.st9{fill:#62A540;}
	.st10{fill:#4B9C40;}
	.st11{fill:#57A040;}
	.st12{fill:#4E9E3F;}
	.st13{fill:#4D9A40;}
	.st14{fill:#3C9440;}
	.st15{fill:#359240;}
	.st16{fill:#238B42;}
	.st17{fill:#3B9341;}
	.st18{fill:#2A8D41;}
	.st19{fill:#1D893F;}
	.st20{fill:#198841;}
	.st21{fill:#098242;}
	.st22{fill:#057843;}
	.st23{fill:#043A4C;}
	.st24{fill:#043B4B;}
	.st25{fill:#053A4D;}
	.st26{fill:#033B4D;}
	.st27{fill:#043A4D;}
</style>
<g>
	<path class="st0" d="M81.2,5.4c11.9-7.2,27.7-7.2,39.6-0.1c6.8,4.1,13.7,7.9,20.5,11.9c-2.1,1.6-4.3,3.2-6.3,4.9
		c-6.2-3.5-12.3-7.1-18.4-10.7C108.4,6.5,98,6,89.3,9.6c-5.8,2.7-10.9,6.5-16.7,9.2c-2.5,0.2-5.1,0.5-7.6,0.8
		c0.6-1.7,1.1-3.4,1.7-5.1C70.9,10.6,76.4,8.4,81.2,5.4z"/>
</g>
<g>
	<path class="st1" d="M26.6,37c13.5-7.2,26.2-15.9,40-22.5c-0.6,1.7-1.1,3.4-1.7,5.1c2.5-0.3,5.1-0.5,7.6-0.8
		c-18.1,11.3-37.2,21-55.1,32.6c-0.2-1.5-0.4-3-0.5-4.6c-1.9,0.1-3.7,0.2-5.5,0.3C15.7,42.7,21.3,40,26.6,37z"/>
	<path class="st1" d="M134.9,22.1c2.1-1.7,4.2-3.3,6.3-4.9c14.1,8.2,28.2,16.5,42.4,24.5c2.4,1.4,4.5,3.3,6.6,5.1
		c-1,0.5-1.9,1-2.9,1.6c-1.5-0.4-3-0.7-4.6-1.1c-0.4,0.4-1.3,1-1.8,1.4C165.6,40,150.3,31,134.9,22.1z"/>
</g>
<g>
	<path class="st2" d="M11.4,47.2c1.8-0.1,3.7-0.2,5.5-0.3c0.2,1.5,0.4,3,0.5,4.6c-4.4,4.4-7.4,10.1-9.3,16c-2.6-0.5-6.2,0-6.5,3.2
		C0.9,77.1,1.7,83.6,0.5,90C-0.9,75-0.2,58.3,11.4,47.2z"/>
</g>
<g>
	<path class="st3" d="M182.8,47.3c1.5,0.4,3,0.7,4.6,1.1c0.9-0.5,1.9-1,2.9-1.6c7.3,7.3,11.8,17.5,11.5,27.9
		c-0.5,0.4-1.1,0.7-1.6,1.1c-1.4-1.2-2.9-2.4-4.1-3.8c-0.3,3.8-0.3,7.6-0.6,11.5c-0.4,0.2-1.1,0.5-1.5,0.7
		c2-13.1-1.4-27.7-12.9-35.5C181.5,48.3,182.4,47.6,182.8,47.3z"/>
</g>
<g>
	<path class="st4" d="M150,49.1c2.2-2.3,5.1,0.6,6.8,2.2c6,6.3,12.3,12.2,18.1,18.6c-4.3,4.3,1.1,8,2.5,12.2
		c-8.9-7.8-16.8-16.5-25.2-24.7c-5,4.3-9.4,9.2-14.2,13.8c-1-2.4-3.1-3.8-5.3-4.9C138.6,60.6,143.9,54.5,150,49.1z"/>
</g>
<g>
	<path class="st5" d="M68.6,51.7c1.8-2.3,5.1-2,6.8,0.1c8.8,8.6,17.4,17.3,26.1,26.1c-2.1,1.4-3.7,3.4-4.7,5.7
		c-8.6-7.7-15.8-17.4-25.2-23.9c-6.3,5-11.5,11.4-17.4,16.8c-3.7-1.7-7.6-0.6-11.1,0.9C51.3,68.6,60,60.2,68.6,51.7z"/>
</g>
<g>
	<path class="st6" d="M1.6,70.7c0.3-3.2,4-3.8,6.5-3.2C7.3,80.9,8,94.3,7.8,107.8c-0.6-1.3-1.2-2.7-1.8-4c-3.5,3.9-5.1,9-5,14.2
		l-0.3-0.9c-0.8-9-0.5-18.1-0.1-27.1C1.7,83.6,0.9,77.1,1.6,70.7z"/>
</g>
<g>
	<path class="st7" d="M111.4,87.5c7.2-7.1,14.3-14.2,21.4-21.3c2.2,1.1,4.4,2.5,5.3,4.9c-7.2,7.2-14.5,14.4-21.6,21.6
		c0.8,0.8,1.6,1.7,2.4,2.5c-2.3-0.7-4.6-1.1-6.9-1.5c0,1.7,0.1,3.4,0.1,5.2c-5.2-5-10.2-10.2-15.3-15.3c1-2.3,2.6-4.3,4.7-5.7
		C104.7,81.2,108,84.4,111.4,87.5z"/>
</g>
<g>
	<path class="st8" d="M175,69.9c6.2,4.8,10.4,13.9,19,14.3c0.4-0.2,1.1-0.5,1.5-0.7c0.3-3.8,0.3-7.6,0.6-11.5
		c1.2,1.4,2.7,2.6,4.1,3.8c0.5-0.3,1.1-0.7,1.6-1.1c-0.3,9.1,0.2,18.2-0.3,27.2c-0.5-4.5-2.3-9.2-7.1-10.6
		c-11.4-1.3-23.1,0.2-33.8,4.4c-3.4-0.6-6.6-2.1-9.7-3.8c8.6-4.3,17.9-6.9,27.4-8c-0.3-0.6-0.5-1.3-0.8-1.9
		C176.1,77.9,170.7,74.2,175,69.9z"/>
</g>
<g>
	<path class="st9" d="M43,77.4c3.5-1.6,7.4-2.7,11.1-0.9c-8.1,7.8-15.8,16.1-24,23.8c-3-0.5-6-0.9-9-1.2
		C28.5,91.9,35.5,84.3,43,77.4z"/>
</g>
<g>
	<path class="st10" d="M194.4,91.4c4.8,1.4,6.6,6.1,7.1,10.6c0.6,9.1,0,18.3,0.3,27.4c-1.9-1.3-4-2.3-6.2-3c-0.3-0.1-1-0.3-1.4-0.4
		c-2.4,2.3-4.8,4.7-7.3,6.8c-0.6-1.3-1.2-2.5-1.8-3.8c-1.5-0.2-3.1-0.4-4.6-0.5c5.4-4.4,10.8-9.6,13.3-16.2
		C194.7,105.3,193.8,98.3,194.4,91.4z"/>
</g>
<g>
	<path class="st11" d="M127.3,103.5c8-3.6,15.7-7.8,23.6-11.6c3,1.7,6.2,3.2,9.7,3.8c-13.1,5.1-24.9,12.9-38.1,17.8
		c-0.6,0.1-1.9,0.2-2.6,0.3c0.4-1.1,0.8-2.2,1.1-3.3c-2.3-0.6-4.6-1.1-6.9-1.6c1.8-0.7,3.6-1.4,5.4-2.1c-2.4-2.7-4.9-5.4-7.5-7.9
		c0-1.7-0.1-3.4-0.1-5.2c2.3,0.4,4.6,0.8,6.9,1.5C121.6,98.1,124.4,100.8,127.3,103.5z"/>
</g>
<g>
	<path class="st12" d="M21.2,99c3,0.3,6,0.8,9,1.2c-2.6,2.6-5.2,5.3-7.7,8c9.4,1.1,18.8,3.2,27.6,6.8c-1.4,1.3-2.9,2.6-4.3,3.9
		c3.7,0.3,7.4,1.8,8.8,5.6c-14.6-6.4-30.7-10.5-46.7-8.5c0,11.3,0.1,22.7-0.1,34c-1.7-8.8-0.7-17.7-1.3-26.6c-1.2,0-2.4,0-3.5-0.1
		c-0.7-1.8-1.4-3.5-1.9-5.4c-0.1-5.2,1.5-10.3,5-14.2c0.6,1.3,1.3,2.6,1.8,4l0.2,0.9C14.1,108.6,17,102.5,21.2,99z"/>
</g>
<g>
	<path class="st13" d="M70.3,118.4c14.9-1.6,29.7-4.5,43.9-9.5c2.3,0.4,4.6,1,6.9,1.6c-0.4,1.1-0.8,2.2-1.1,3.3
		c0.6-0.1,1.9-0.2,2.6-0.3c-15.2,6.1-31.4,9.8-47.6,11.7C73.4,122.9,71.9,120.6,70.3,118.4z"/>
</g>
<g>
	<path class="st14" d="M50.1,115c6.3,3.1,13.1,5.4,20.2,3.4c1.6,2.2,3.1,4.5,4.6,6.8l-1,0.1c18.3,8,37.7,13.3,57.5,15.8
		c7.6,0.8,15.7,2.7,23.2,0c9.1-3.1,18.3-6.8,26-12.6c1.5,0.1,3.1,0.3,4.6,0.5c0.6,1.3,1.2,2.5,1.8,3.8c-6.4,5.3-13.7,9.2-21.4,12.2
		c-0.4-0.3-1.4-0.8-1.8-1c0.4-0.9,0.8-1.8,1.3-2.8c-9.6,2.2-19.5,6.5-29.5,3.6c-3.8-1.3-6.9,1.1-9.9,3.1
		c-24.9-3.6-48.5-12.5-71.1-23.3c-1.4-3.8-5-5.3-8.8-5.6C47.2,117.6,48.6,116.3,50.1,115z"/>
</g>
<g>
	<path class="st15" d="M0.7,117.1l0.3,0.9c0.5,1.8,1.2,3.6,1.9,5.4c1.2,0,2.4,0.1,3.5,0.1c0.6,8.9-0.3,17.8,1.3,26.6
		c0.3,2,0.7,3.9,1.3,5.8c-2.5,2-4,4.8-4.4,8C-2.7,149.4,1,132.6,0.7,117.1z"/>
</g>
<g>
	<path class="st16" d="M194.2,125.9c0.3,0.1,1,0.3,1.4,0.4c-0.6,6.1-0.5,12.2,0,18.3c1.2,0.4,2.4,0.7,3.7,1.1
		c0.3,3.5,0.6,7,0.9,10.6c-1,5.7-4.4,10.7-7.8,15.3l-0.4-0.9c-0.4-1.1-0.8-2.1-1.3-3.2c-1.9,1.5-3.8,3-5.6,4.5
		c-1-0.2-2.1-0.4-3.1-0.7c7.2-5.7,12.5-14.4,12.3-23.8C194.2,140.4,194.2,133.1,194.2,125.9z"/>
</g>
<g>
	<path class="st17" d="M195.6,126.4c2.2,0.7,4.3,1.7,6.2,3c-0.7,9,1.3,18.3-1.6,27c-0.3-3.5-0.7-7-0.9-10.6
		c-1.2-0.4-2.4-0.7-3.7-1.1C195,138.6,194.9,132.4,195.6,126.4z"/>
</g>
<g>
	<path class="st18" d="M135.5,144.7c10,2.9,19.9-1.3,29.5-3.6c-0.4,0.9-0.9,1.8-1.3,2.8c0.4,0.3,1.3,0.8,1.8,1
		c-25.6,9.6-53.1,12.3-79.8,17.7c-1.4,0-2.8,0-4.2-0.1c0.1-2.3-1-4.2-2.4-5.9c15.3-3.6,31-5.6,46.4-8.9
		C128.6,145.8,131.7,143.4,135.5,144.7z"/>
</g>
<g>
	<path class="st19" d="M4.5,163.8c0.4-3.2,1.9-6,4.4-8c1.5,4,3.6,7.7,6.3,11c-2.7,0.2-5.4,0.6-8,1.5C6.3,166.8,5.3,165.3,4.5,163.8z
		"/>
</g>
<g>
	<path class="st20" d="M49.1,166.9c9.5-4.9,19.8-7.7,30.1-10.2c1.4,1.7,2.5,3.6,2.4,5.9c1.4,0,2.8,0.1,4.2,0.1
		c-11.7,2.5-23.4,5.6-34.1,11C50.8,171.4,49.9,169.2,49.1,166.9z"/>
</g>
<g>
	<path class="st21" d="M7.2,168.3c2.6-0.9,5.3-1.3,8-1.5c4.6,5.3,11.1,8.4,17.2,11.6c5.5-3.9,10.4-8.6,16.6-11.4
		c0.8,2.3,1.7,4.5,2.6,6.8c-4.5,2.3-8.7,5.2-12.2,8.9c5.8,3.6,11.8,6.9,17.7,10.3c-0.5,1.3-1,2.6-1.5,3.9c-2-1-4-2-6-2.9
		c-0.5,0.5-1.5,1.4-1.9,1.9c-9.7-5.3-19.1-11.1-28.7-16.5C14.2,176.5,10.3,172.7,7.2,168.3z"/>
</g>
<g>
	<path class="st22" d="M185,172.1c1.9-1.5,3.8-3,5.6-4.5c0.5,1,0.9,2.1,1.3,3.2l0.4,1c-2.5,2.4-5,4.8-8,6.7
		c-21.7,12.6-43.4,25.1-65.1,37.7c-11.5,6.6-26.5,6.3-37.7-0.7c-11.3-6.6-22.6-13-33.9-19.7c0.5-0.5,1.5-1.4,1.9-1.9
		c2,0.9,4,1.9,6,2.9c0.5-1.3,1-2.6,1.5-3.9c9.3,5.4,18.7,10.7,27.9,16.2c9.5,5.9,22.4,5.9,31.9,0c21.6-12.6,43.4-24.9,65-37.6
		C182.9,171.7,183.9,171.9,185,172.1z"/>
</g>
<g>
	<g>
		<path class="st23" d="M10.7,230.8c7-1.9,17.2-1.1,19.7,7.1c2.1,7.8,2.7,17.6-2.8,24.2c-7.7,5.8-23.3,4.2-24.8-7.1
			C1.6,246.6,1.1,234.1,10.7,230.8z M12.9,235.3c-6.1,3.6-4.9,12.4-4.2,18.5c0.2,8.2,14,9.3,16.2,1.8c1.3-5.5,1.5-11.5-0.5-16.9
			C22.7,234.2,16.8,234,12.9,235.3z"/>
	</g>
	<g>
		<path class="st23" d="M114.7,230.8c7-1.9,17.2-1.1,19.7,7.1c2.1,7.8,2.7,17.5-2.7,24.1c-7.6,5.9-23.4,4.4-24.8-7.1
			C105.6,246.6,105.1,234.1,114.7,230.8z M116.9,235.3c-6.2,3.6-5,12.4-4.2,18.5c0.2,8.2,14,9.3,16.2,1.8c1.3-5.5,1.5-11.5-0.5-16.9
			C126.8,234.2,120.8,234,116.9,235.3z"/>
	</g>
</g>
<g>
	<path class="st24" d="M38.8,230.6c1.9-0.1,3.9-0.1,5.8-0.2c0,5.2,0,10.4,0,15.6c1.8-0.3,3.7-0.4,5.5-0.6c2.5-5,5-9.9,7.4-14.9
		c2.2,0,4.4,0,6.5-0.1c-2.8,5.8-6,11.4-8.9,17.2c3.1,5.7,6.3,11.4,9.4,17.1c-2.3,0-4.6-0.1-6.9-0.2c-2.5-4.9-5-9.8-8-14.5
		c-1.7,0.3-3.5,0.5-5.2,0.8c0.1,4.6,0,9.2,0,13.9c-2-0.1-3.9-0.1-5.8-0.1C38.9,253.2,38.9,241.9,38.8,230.6z"/>
</g>
<g>
	<path class="st25" d="M77.3,230.5c8.7,0.1,17.4-0.2,26.1,0.1c0.8,1.4,0.3,3.1,0.5,4.7c-3.5,0-7,0-10.4,0c0,9.8,0,19.6,0,29.4
		c-1.9,0-3.8-0.1-5.6-0.1c0-9.7,0-19.5,0-29.2c-3.5-0.1-7.1-0.1-10.6-0.1C77.3,233.6,77.3,232,77.3,230.5z"/>
</g>
<g>
	<path class="st26" d="M141.5,230.4c2,0,4,0,6,0c0.1,8.1-0.1,16.2,0,24.3c0,7.8,14.6,7.9,14.8,0.1c0.4-8.1,0-16.3,0.2-24.4
		c1.9,0.1,3.8,0.1,5.6,0.2c-0.1,8,0,16,0,24.1c0.4,14.3-26.7,14.3-26.6,0.1C141.4,246.6,141.5,238.5,141.5,230.4z"/>
</g>
<g>
	<g>
		<path class="st27" d="M175.8,230.6c7.2,0.3,15.1-1.6,21.8,1.8c6.7,4.4,5.4,15.7-1.6,19.2c2,4.4,3.9,8.8,5.9,13.2
			c-2.1,0-4.2,0-6.3,0c-1.8-4.1-3.5-8.4-5.5-12.4c-2.8,0-5.6,0-8.4,0c-0.1,4.1-0.1,8.3-0.1,12.4c-1.9,0-3.9-0.1-5.8-0.1
			C175.9,253.2,175.9,241.9,175.8,230.6z M181.7,235c0,4.2,0,8.4,0,12.6c3.6,0,7.2,0.3,10.8-0.3c5-1.7,5.1-10.8-0.4-12
			C188.6,234.7,185.1,235.1,181.7,235z"/>
	</g>
</g>
</svg>
