<svg id="Слой_2" data-name="Слой 2" xmlns="http://www.w3.org/2000/svg" viewBox="0 0 675.35 278.62"><defs><style>.cls-1{fill:#0e0004;}.cls-2{fill:#fff;}</style></defs><title>Монтажная область 1</title><path class="cls-1" d="M661.63,214c-253-112.7-482.34-62.07-643.67,64.67C230,151.43,440.63,161.29,661.63,214Z"/><path class="cls-2" d="M5.21,0H92.54c18.17,0,37.75,19.87,37.75,39.21,0,31.5-23.16,44-52.41,44C53,83.17,59.63,72,69.67,72,90,72,95,57.37,95,44.54c0-25-12.08-35.42-28.75-35.42-11.75,0-13.92,6.73-13.92,10.67V123.38c0,11.25,8,11.74,12.86,11.74,7.64,0,10.24,11.38,0,11.38l-56.83,0c-4.5,0-6.4-8.51.14-8.51,5.12,0,10.52-1.76,10.52-7.32S19,27.29,19,22.88c0-5.75-4.58-12-14.53-12C-3.12,10.91.19,0,5.21,0Z"/><path class="cls-2" d="M127.46,143.92c0-6.75,11-4.72,11-10.79,0-3,0-51.17,0-54.51,0-8.65-6.86-5-8.83-7-1.7-1.69-.34-5.17.66-5.66,4.87-2.36,17.82-7.93,25.08-11.26,5.7-2.62,10.86-2.14,10.66,3-.07,1.56-.07,7.78-.07,11.77,0,3.18,3.67,2.33,5,.16a194.68,194.68,0,0,1,12.4-15.56,7.48,7.48,0,0,1,9.06-.93,136.85,136.85,0,0,1,11.31,8.5c4.81,4.47,2.78,9.43.19,13.75-2.31,3.84-5.44,9-11.06,9-4.5,0-9.57-6.92-16.73-6.92-5.25,0-9.36,8.75-9.36,12.08s0,36.25,0,40.75c0,6.28,15.46,4.29,15.46,12.54,0,2.22-1.31,3.67-3.8,3.67H130.28A3.21,3.21,0,0,1,127.46,143.92Z"/><path class="cls-2" d="M291.36,123.56c-8-1.55-4.44,7.94-30.19,7.94-14.5,0-33.63-7.71-31.47-32.87.05-.57,47.28,0,57.34,0,5.62,0,5.44-5.68,5.44-9.19,0-8.25-10.44-35.56-40.94-35.56-28,0-49.37,24.37-49.37,51.12,0,45.63,63.44,53.44,84.06,32.81C290.08,134,296.48,124.56,291.36,123.56ZM249.92,62.63c10.25,0,16.06,13.45,11.37,26.9H230C231.38,73.71,237.67,62.63,249.92,62.63Z"/><path class="cls-2" d="M302.42,138c4,6.49,16.87,10.17,29.37,10.17,33.13,0,38-20.25,38-31.75,0-32.75-49.5-25.38-49.5-44,0-5,5.5-9.75,14.25-9.75,13.88,0,22.88,15.37,25,20.75.52,1.31,3.75,1.75,4.25,0s.56-15,0-20.75c-.5-5.13-18.25-8.75-28-8.75-21,0-35.5,13.87-35.5,30.87,0,30.88,49.5,22.38,49.5,45.63,0,6-9.24,10.73-18,9.81-16.24-1.69-20.9-19.93-23.78-24.39-2.21-3.42-5.56-.92-5.46,2.33Z"/><path class="cls-2" d="M402,29.38c-3.64,3.71-23,24.32-24.91,26.75-3.75,3.75-11.67,11.33-3.85,13.5h9V128c0,13.89,17.67,20.14,25.34,20.14s19.66-4.84,23-7.84,3.41-8.91,0-8.33c-2.84.48-11.25,1.17-12.59,1.17a10,10,0,0,1-9.41-10.52v-53h13.83c4.75,0,8.43-1.73,9.46-7.13,1.56-8.19.15-9.36-1.19-9.37-4.81-.07-2.69,2.08-5.69,2.16-1.66.05-16.08,0-16.08,0V31.94C409,28.82,405.89,25.46,402,29.38Z"/><circle class="cls-2" cx="464.04" cy="21.38" r="14.87"/><path class="cls-2" d="M478,57.13v73.75c0,5.92,5.22,5.87,7.75,7.5,3.5,2.25,2.16,8.12.56,8.12H440c-3.28,0-3.58-6.46-.58-7.71s9.7-1.72,9.58-7.39c-.12-6,.13-42.85.13-47,0-10.5-3.73-9.68-7.13-9.75-2.46-.06-4.25-4.19-2.75-6.19s27.46-13.92,29.25-14.56C476,51.19,478,55.14,478,57.13Z"/><path class="cls-2" d="M581.35,56.67c-3.64,5.29-5.89,9-11.56,9S552.29,53,533,53c-24.79,0-41.67,15.67-41.67,33.91,0,15.63,11.53,24,17.07,26.62,1.25.59,2.62,2.44.09,3.87-2.05,1.1-14.55,6.38-14.55,17.82,0,8.12,6.71,12.12,10,14.43,1.42,1.13.33,2.06-.45,2.38-4.19,1.74-12.13,6.17-12.13,16.29,0,13.84,28.59,19,45.67,19,33.46,0,43.83-19.71,43.83-35.16,0-22.5-26.16-20.5-36.83-20.5-14.93,0-27.33.75-27.33-8.5,0-2.86-2.29-2.84,14.66-2.84,18.34,0,42.33-13,42.33-34.85,0-2.69,0-7.56,0-7.56s6.59-.46,9.25-1.38c3.62-1.25,6.18-5.36,7-8.42a36.45,36.45,0,0,0,.58-7.83C590.5,54.63,586.79,46.88,581.35,56.67Zm-56.94,96.85c2.93,0,21.08.75,25.88,1.23,8.82.88,13.5,3.25,13.5,9.38,0,5.31-5.8,13.26-24.37,13.43-6.81.07-28.38-2.56-26.25-16.31C513.7,157.79,515.86,153.52,524.41,153.52Zm7.82-43.06c-6.52,0-12.19-5.25-12.19-24.58,0-19.13,7.75-22.63,13.75-22.63,2.76,0,10.63.88,10.63,22.63C544.42,107.13,538.61,110.46,532.23,110.46Z"/><path class="cls-2" d="M673.46,127.76c-8-1.55-4.44,7.94-30.19,7.94-14.5,0-33.62-7.71-31.47-32.87.05-.57,47.28,0,57.35,0,5.61,0,5.44-5.68,5.44-9.19,0-8.25-10.44-35.56-40.94-35.56s-50.75,24.5-50.75,51.25c0,50.87,67.16,51.88,85.44,32.68C672.09,138.08,678.59,128.76,673.46,127.76ZM632,66.83c10.25,0,16.07,13.45,11.38,26.9H612.15C613.48,77.91,619.77,66.83,632,66.83Z"/></svg>